<svg width="12" height="8" viewBox="0 0 12 8" fill="none" xmlns="http://www.w3.org/2000/svg">
<path d="M5.99746 4.68077L10.4868 0.191595C10.6101 0.0679851 10.775 -1.47284e-05 10.9508 -1.47361e-05C11.1267 -1.47438e-05 11.2915 0.0679851 11.415 0.191595L11.8082 0.58496C11.9319 0.708375 12 0.873351 12 1.04916C12 1.22496 11.9319 1.38974 11.8082 1.51325L6.46322 6.85833C6.33932 6.98233 6.17376 7.05023 5.99776 7.04974C5.82098 7.05023 5.65561 6.98242 5.53161 6.85833L0.191806 1.51823C0.0680978 1.39472 -2.54392e-07 1.22994 -2.62081e-07 1.05403C-2.69765e-07 0.87823 0.0680978 0.713449 0.191806 0.589839L0.584976 0.196571C0.840878 -0.0593314 1.25746 -0.0593314 1.51327 0.196571L5.99746 4.68077Z" fill="#66696C"/>
</svg>
