<svg width="24" height="24" viewBox="0 0 24 24" fill="none" xmlns="http://www.w3.org/2000/svg">
<path d="M4.54125 12.1713L4.36557 11.9949L4.54125 11.8185L13.4726 2.85013L13.4726 2.85009C13.8851 2.43606 13.8852 1.76064 13.4726 1.34636L12.6893 0.560043L12.6892 0.559952C12.4901 0.359846 12.2258 0.25 11.9419 0.25C11.6578 0.25 11.3935 0.359869 11.1946 0.559881L11.1945 0.560028L0.558391 11.2396L0.558326 11.2397C0.358646 11.4401 0.249213 11.7068 0.250008 11.9948L0.250004 11.9962C0.249214 12.2825 0.358737 12.5497 0.558326 12.75L0.558394 12.75L11.2044 23.44L11.2045 23.4401C11.4034 23.6401 11.6677 23.75 11.9516 23.75C12.2356 23.75 12.5002 23.6401 12.6988 23.4402L12.6991 23.4399L13.4826 22.6536L13.4826 22.6536C13.6816 22.4539 13.7913 22.188 13.7913 21.9017C13.7913 21.6155 13.6816 21.3495 13.4827 21.1503L13.4825 21.1501L4.54125 12.1713Z" fill="#66696C" stroke="#2A2E30" stroke-width="0.5"/>
<path d="M14.4999 12.1713L14.3243 11.9949L14.4999 11.8185L23.4313 2.85013L23.4313 2.85009C23.8438 2.43606 23.8439 1.76064 23.4313 1.34636L22.648 0.560043L22.6479 0.559952C22.4488 0.359846 22.1844 0.25 21.9006 0.25C21.6165 0.25 21.3522 0.359869 21.1533 0.559881L21.1532 0.560028L10.5171 11.2396L10.517 11.2397C10.3173 11.4401 10.2079 11.7068 10.2087 11.9948L10.2087 11.9962C10.2079 12.2825 10.3174 12.5497 10.517 12.75L10.5171 12.75L21.1631 23.44L21.1632 23.4401C21.3621 23.6401 21.6264 23.75 21.9103 23.75C22.1943 23.75 22.4589 23.6401 22.6575 23.4402L22.6578 23.4399L23.4412 22.6536L23.4413 22.6536C23.6403 22.4539 23.75 22.188 23.75 21.9017C23.75 21.6155 23.6403 21.3495 23.4414 21.1503L23.4412 21.1501L14.4999 12.1713Z" fill="#66696C" stroke="#2A2E30" stroke-width="0.5"/>
</svg>
