<svg width="26" height="32" viewBox="0 0 26 32" fill="none" xmlns="http://www.w3.org/2000/svg">
<path fill-rule="evenodd" clip-rule="evenodd" d="M13 0V4.36363C20.1825 4.36363 25.9999 9.57087 26 15.9999C26 18.2836 25.2525 20.4 23.9931 22.2036L21.6206 20.0799C22.3356 18.8581 22.75 17.4763 22.75 15.9999C22.75 11.1781 18.3869 7.27267 13 7.27267V11.6363L6.50003 5.81815L13 0ZM3.25002 16C3.25002 20.8218 7.61314 24.7273 13 24.7273V20.3636L19.5 26.1818L13 32V27.6364C5.81747 27.6364 0 22.4291 0 16C0 13.7163 0.747473 11.6 2.0069 9.79634L4.37942 11.92C3.66439 13.1418 3.25002 14.5237 3.25002 16Z" fill="#66696C"/>
</svg>
