<svg width="139" height="32" viewBox="0 0 139 32" fill="none" xmlns="http://www.w3.org/2000/svg">
<mask id="mask0" mask-type="alpha" maskUnits="userSpaceOnUse" x="0" y="0" width="32" height="32">
<path d="M16 32C24.8366 32 32 24.8366 32 16C32 7.16344 24.8366 0 16 0C7.16344 0 0 7.16344 0 16C0 24.8366 7.16344 32 16 32Z" fill="white"/>
</mask>
<g mask="url(#mask0)">
<path d="M16 32C24.8366 32 32 24.8366 32 16C32 7.16344 24.8366 0 16 0C7.16344 0 0 7.16344 0 16C0 24.8366 7.16344 32 16 32Z" fill="url(#paint0_linear)"/>
<path style="mix-blend-mode:hard-light" fill-rule="evenodd" clip-rule="evenodd" d="M21.4649 -11.2L37.1215 20.1145C22.0354 19.5791 13.8065 17.9416 12.4359 15.2001C11.0653 12.4585 14.075 3.65851 21.4643 -11.2H21.4649Z" fill="url(#paint1_linear)"/>
<path style="mix-blend-mode:hard-light" d="M25.6201 20.5506L24.8396 17.8436C23.4267 12.9431 18.2868 10.1096 13.3594 11.5148L4.96505 13.9087C0.03761 15.3139 -2.81147 20.4257 -1.39855 25.3262L-0.61809 28.0331C0.79483 32.9337 5.9347 35.7672 10.8621 34.362L19.2565 31.9681C24.1839 30.5629 27.033 25.4511 25.6201 20.5506Z" fill="url(#paint2_linear)"/>
</g>
<g clip-path="url(#clip0)">
<path fill-rule="evenodd" clip-rule="evenodd" d="M44.8577 21.1662H43.7522C43.31 21.1662 42.9268 21.1551 42.6025 21.1329C42.2783 21.1107 41.9448 21.0625 41.6021 20.9884C41.2594 20.9143 40.9683 20.8161 40.7288 20.6938C40.4892 20.5716 40.2589 20.4067 40.0378 20.1992C39.8167 19.9917 39.6399 19.7416 39.5072 19.4489C39.3746 19.1562 39.2695 18.8061 39.1922 18.3985C39.1148 17.9909 39.0761 17.5241 39.0761 16.998V11.6181H36.7104V9.77293H39.1866V7.10522L41.8066 6.2938V9.77293H44.7692V11.6181H41.8066V17.1647C41.8066 17.5204 41.8342 17.8075 41.8895 18.0261C41.9448 18.2447 42.0277 18.4263 42.1382 18.5708C42.2488 18.7153 42.4349 18.8209 42.6965 18.8876C42.9581 18.9543 43.2437 18.9987 43.5532 19.021C43.8628 19.0432 44.2976 19.0543 44.8577 19.0543V21.1662ZM49.3737 14.1079H55.0116C54.8789 13.3002 54.5804 12.6815 54.1161 12.2517C53.6518 11.8219 53.0844 11.607 52.4137 11.607C51.6251 11.607 50.9655 11.8293 50.4349 12.2739C49.9043 12.7185 49.5505 13.3299 49.3737 14.1079ZM52.6127 21.433C50.7039 21.433 49.1986 20.8847 48.0969 19.7879C46.9951 18.6912 46.4442 17.2573 46.4442 15.4863C46.4442 14.6859 46.5768 13.9264 46.8421 13.2076C47.1075 12.4888 47.4815 11.8515 47.9642 11.2957C48.4469 10.74 49.0586 10.2991 49.7993 9.97301C50.5399 9.64695 51.3598 9.48393 52.2589 9.48393C53.1581 9.48393 53.9429 9.63954 54.6136 9.95078C55.2842 10.262 55.8149 10.6974 56.2055 11.2568C56.5961 11.8163 56.8853 12.4443 57.0733 13.1409C57.2612 13.8375 57.3552 14.6081 57.3552 15.4529C57.3552 15.6678 57.3367 15.8308 57.2999 15.942H49.3405C49.3847 17.0535 49.7219 17.8761 50.352 18.4096C50.9821 18.9432 51.8204 19.2099 52.867 19.2099C54.0903 19.2099 55.2842 18.8024 56.4487 17.9872L57.1893 19.988C56.4745 20.4845 55.7541 20.8495 55.0281 21.0829C54.3022 21.3163 53.4971 21.433 52.6127 21.433ZM59.2289 21.1774V4.98218H61.9373V21.1774H59.2289ZM66.8696 14.1079H72.5075C72.3748 13.3002 72.0763 12.6815 71.612 12.2517C71.1477 11.8219 70.5803 11.607 69.9096 11.607C69.121 11.607 68.4614 11.8293 67.9308 12.2739C67.4002 12.7185 67.0464 13.3299 66.8696 14.1079ZM70.1086 21.433C68.1998 21.433 66.6945 20.8847 65.5927 19.7879C64.491 18.6912 63.9401 17.2573 63.9401 15.4863C63.9401 14.6859 64.0727 13.9264 64.338 13.2076C64.6034 12.4888 64.9774 11.8515 65.4601 11.2957C65.9428 10.74 66.5545 10.2991 67.2952 9.97301C68.0358 9.64695 68.8557 9.48393 69.7548 9.48393C70.654 9.48393 71.4388 9.63954 72.1095 9.95078C72.7801 10.262 73.3108 10.6974 73.7014 11.2568C74.092 11.8163 74.3812 12.4443 74.5692 13.1409C74.7571 13.8375 74.8511 14.6081 74.8511 15.4529C74.8511 15.6678 74.8326 15.8308 74.7958 15.942H66.8364C66.8806 17.0535 67.2178 17.8761 67.8479 18.4096C68.478 18.9432 69.3163 19.2099 70.3628 19.2099C71.5862 19.2099 72.7801 18.8024 73.9446 17.9872L74.6852 19.988C73.9704 20.4845 73.25 20.8495 72.524 21.0829C71.7981 21.3163 70.993 21.433 70.1086 21.433ZM82.3406 19.2099C82.8491 19.2099 83.2931 19.108 83.6727 18.9043C84.0522 18.7005 84.3507 18.4207 84.5681 18.065C84.7855 17.7093 84.9476 17.3148 85.0545 16.8812C85.1614 16.4477 85.2148 15.9753 85.2148 15.464C85.2148 14.76 85.119 14.1339 84.9274 13.5855C84.7358 13.0372 84.417 12.5888 83.9711 12.2406C83.5253 11.8923 82.9781 11.7181 82.3295 11.7181C81.6884 11.7181 81.1467 11.8904 80.7045 12.235C80.2623 12.5796 79.9454 13.0205 79.7538 13.5577C79.5622 14.095 79.4664 14.7119 79.4664 15.4085C79.4664 15.9272 79.5198 16.407 79.6267 16.8479C79.7335 17.2888 79.8975 17.689 80.1186 18.0484C80.3397 18.4078 80.64 18.6912 81.0195 18.8987C81.3991 19.1062 81.8394 19.2099 82.3406 19.2099ZM76.9238 25.568V13.6078C76.9238 12.9482 76.8538 11.67 76.7137 9.77293H79.6211V11.4069C79.7096 10.9919 80.0799 10.5677 80.7321 10.1342C81.3844 9.70068 82.1821 9.48393 83.1255 9.48393C84.1204 9.48393 84.9992 9.75996 85.762 10.312C86.5248 10.8641 87.0996 11.581 87.4865 12.4629C87.8735 13.3447 88.0669 14.3043 88.0669 15.3418C88.0669 16.1198 87.9527 16.8701 87.7242 17.5926C87.4958 18.3151 87.1715 18.9635 86.7514 19.5378C86.3313 20.1121 85.7933 20.5716 85.1374 20.9161C84.4815 21.2607 83.7593 21.433 82.9707 21.433C82.079 21.433 81.3199 21.2218 80.6934 20.7994C80.067 20.377 79.7096 19.9806 79.6211 19.6101V25.568H76.9238ZM95.6634 21.433C94.6758 21.433 93.7951 21.2718 93.0213 20.9495C92.2475 20.6271 91.6229 20.1899 91.1475 19.6379C90.6722 19.0858 90.311 18.4559 90.0642 17.7483C89.8173 17.0406 89.6938 16.2829 89.6938 15.4751C89.6938 14.6526 89.8191 13.8838 90.0697 13.1687C90.3203 12.4536 90.6869 11.82 91.1696 11.268C91.6523 10.7159 92.2788 10.2805 93.0489 9.96189C93.8191 9.64325 94.6869 9.48393 95.6523 9.48393C96.6399 9.48393 97.5169 9.64139 98.2833 9.95633C99.0498 10.2713 99.6651 10.7048 100.129 11.2568C100.594 11.8089 100.942 12.4425 101.174 13.1576C101.406 13.8727 101.522 14.6526 101.522 15.4974C101.522 16.2903 101.401 17.0369 101.158 17.7371C100.914 18.4374 100.559 19.0654 100.091 19.6212C99.6228 20.177 99.0074 20.6179 98.2446 20.9439C97.4818 21.27 96.6214 21.433 95.6634 21.433ZM95.6081 19.2099C96.1461 19.2099 96.6177 19.108 97.0231 18.9043C97.4284 18.7005 97.7472 18.4189 97.9793 18.0595C98.2115 17.7001 98.3846 17.3018 98.4989 16.8646C98.6131 16.4274 98.6702 15.9531 98.6702 15.4418C98.6702 14.3525 98.4141 13.4596 97.9019 12.763C97.3897 12.0664 96.6288 11.7181 95.6191 11.7181C94.9337 11.7181 94.3552 11.8904 93.8835 12.235C93.4119 12.5796 93.071 13.026 92.861 13.5744C92.651 14.1228 92.5459 14.7452 92.5459 15.4418C92.5459 16.131 92.6436 16.7497 92.8389 17.2981C93.0342 17.8464 93.3695 18.3022 93.8449 18.6653C94.3202 19.0284 94.9079 19.2099 95.6081 19.2099ZM103.389 21.1774V12.6629C103.389 12.2183 103.37 11.7552 103.333 11.2735C103.297 10.7918 103.26 10.4213 103.223 10.162L103.168 9.77293H106.086V11.2735C106.536 10.6807 106.983 10.2342 107.429 9.9341C107.875 9.63398 108.378 9.48393 108.938 9.48393C109.27 9.48393 109.646 9.5395 110.066 9.65066V12.0627C109.572 11.8997 109.115 11.8182 108.695 11.8182C107.936 11.8182 107.317 12.0664 106.838 12.5629C106.359 13.0594 106.119 13.7782 106.119 14.7193V21.1774H103.389ZM119.822 21.1662H118.716C118.274 21.1662 117.891 21.1551 117.567 21.1329C117.243 21.1107 116.909 21.0625 116.566 20.9884C116.224 20.9143 115.933 20.8161 115.693 20.6938C115.454 20.5716 115.223 20.4067 115.002 20.1992C114.781 19.9917 114.604 19.7416 114.471 19.4489C114.339 19.1562 114.234 18.8061 114.156 18.3985C114.079 17.9909 114.04 17.5241 114.04 16.998V11.6181H111.675V9.77293H114.151V7.10522L116.771 6.2938V9.77293H119.734V11.6181H116.771V17.1647C116.771 17.5204 116.798 17.8075 116.854 18.0261C116.909 18.2447 116.992 18.4263 117.102 18.5708C117.213 18.7153 117.399 18.8209 117.661 18.8876C117.922 18.9543 118.208 18.9987 118.517 19.021C118.827 19.0432 119.262 19.0543 119.822 19.0543V21.1662Z" fill="#333333"/>
<path fill-rule="evenodd" clip-rule="evenodd" d="M129.914 10.6677H128.475V7.72824H125.777V10.6677H124.333V3.85714H125.777V6.52638H128.475V3.85714H129.914V10.6677ZM137.815 7.25309C137.815 8.05433 137.673 8.72591 137.388 9.26783C137.104 9.80976 136.687 10.2065 136.138 10.458L137.777 12.2888H135.928L134.68 10.7608H134.572C133.529 10.7608 132.728 10.458 132.169 9.85246C131.61 9.24687 131.33 8.37731 131.33 7.24377C131.33 6.11023 131.61 5.24456 132.171 4.64673C132.732 4.04891 133.535 3.75 134.582 3.75C135.628 3.75 136.429 4.05124 136.983 4.65372C137.537 5.25621 137.815 6.12265 137.815 7.25309ZM132.844 7.25309C132.844 8.01396 132.989 8.58693 133.277 8.97203C133.566 9.35712 133.998 9.54966 134.572 9.54966C135.725 9.54966 136.301 8.78415 136.301 7.25309C136.301 5.71893 135.728 4.95186 134.582 4.95186C134.007 4.95186 133.574 5.14518 133.282 5.53182C132.99 5.91847 132.844 6.49222 132.844 7.25309Z" fill="#333333"/>
</g>
<defs>
<linearGradient id="paint0_linear" x1="26.5581" y1="21.4419" x2="-2.35296" y2="7.51616" gradientUnits="userSpaceOnUse">
<stop stop-color="#3D2CD8"/>
<stop offset="1" stop-color="#C86DD7"/>
</linearGradient>
<linearGradient id="paint1_linear" x1="37.6216" y1="20.4277" x2="6.53982" y2="-4.15043" gradientUnits="userSpaceOnUse">
<stop stop-color="#3023AE"/>
<stop offset="1" stop-color="#C86DD7"/>
</linearGradient>
<linearGradient id="paint2_linear" x1="1.79579" y1="37.3902" x2="14.3645" y2="5.81876" gradientUnits="userSpaceOnUse">
<stop stop-color="#3023AE"/>
<stop offset="1" stop-color="#C86DD7"/>
</linearGradient>
<clipPath id="clip0">
<rect width="102.5" height="22.5" fill="white" transform="translate(36 3.75)"/>
</clipPath>
</defs>
</svg>
